<svg xmlns="http://www.w3.org/2000/svg" viewBox="0 0 640 360">
  <defs>
    <linearGradient id="bg" x1="0" y1="0" x2="0" y2="1">
      <stop offset="0" stop-color="#1d3f7a"/>
      <stop offset="1" stop-color="#0d1832"/>
    </linearGradient>
  </defs>
  <rect width="640" height="360" fill="url(#bg)"/>
  <rect x="24" y="24" width="592" height="312" rx="12" fill="#0b1224" stroke="#4f78ba" stroke-opacity="0.7"/>

  <rect x="40" y="42" width="180" height="20" rx="7" fill="#132349"/>
  <text x="50" y="56" fill="#f4f8ff" font-family="Segoe UI, Arial" font-size="12" font-weight="700">First Person Maze</text>

  <rect x="240" y="42" width="100" height="20" rx="7" fill="#12203f"/>
  <rect x="348" y="42" width="86" height="20" rx="7" fill="#12203f"/>
  <rect x="442" y="42" width="92" height="20" rx="7" fill="#12203f"/>

  <polygon points="0,196 640,196 560,360 80,360" fill="#0a101f"/>

  <polygon points="220,196 282,196 350,360 300,360" fill="#6e89b8"/>
  <polygon points="358,196 420,196 500,360 448,360" fill="#5675ac"/>
  <polygon points="84,196 160,196 114,360 54,360" fill="#2f4b79"/>
  <polygon points="510,196 596,196 586,360 520,360" fill="#304c7a"/>

  <rect x="304" y="246" width="32" height="62" fill="#f5f9ff"/>
  <rect x="316" y="232" width="8" height="14" fill="#f5f9ff"/>

  <rect x="295" y="286" width="50" height="4" fill="#f5f9ff"/>
  <rect x="318" y="263" width="4" height="50" fill="#f5f9ff"/>

  <rect x="478" y="286" width="110" height="34" rx="8" fill="#111d3a" stroke="#3f5e95"/>
  <rect x="486" y="304" width="74" height="6" rx="3" fill="#62f3c2"/>
</svg>
