<svg xmlns="http://www.w3.org/2000/svg" viewBox="0 0 640 360" role="img" aria-labelledby="title desc">
  <title id="title">Robot Cannon Platformer</title>
  <desc id="desc">Original robot hero with cannon arm facing a mini-boss gate.</desc>
  <defs>
    <linearGradient id="bg" x1="0" y1="0" x2="0" y2="1">
      <stop offset="0%" stop-color="#1a3353" />
      <stop offset="100%" stop-color="#0a111f" />
    </linearGradient>
    <linearGradient id="beam" x1="0" y1="0" x2="1" y2="0">
      <stop offset="0%" stop-color="#72e8ff" />
      <stop offset="100%" stop-color="#1aa6ff" />
    </linearGradient>
  </defs>
  <rect width="640" height="360" fill="url(#bg)" />
  <rect y="284" width="640" height="76" fill="#22384f" />
  <rect y="284" width="640" height="9" fill="#4a799d" />
  <rect x="468" y="140" width="26" height="144" fill="#73e1ff" />
  <text x="432" y="128" fill="#c9f5ff" font-family="Segoe UI, sans-serif" font-size="18">BOSS GATE</text>

  <g transform="translate(154 182)">
    <rect x="13" y="8" width="34" height="30" fill="#8ac9ff" rx="3" />
    <rect x="8" y="36" width="44" height="34" fill="#8ac9ff" rx="3" />
    <rect x="18" y="14" width="20" height="10" fill="#d5ecff" />
    <rect x="46" y="40" width="34" height="18" fill="#4ea8ff" rx="4" />
    <rect x="12" y="68" width="14" height="10" fill="#9fd6ff" />
    <rect x="34" y="68" width="14" height="10" fill="#9fd6ff" />
  </g>

  <g transform="translate(350 146)">
    <rect x="12" y="16" width="92" height="118" fill="#ff7a9f" rx="8" />
    <rect x="30" y="32" width="56" height="30" fill="#2f1330" rx="5" />
    <rect x="0" y="62" width="32" height="18" fill="#ffc4d3" rx="4" />
    <rect x="84" y="62" width="32" height="18" fill="#ffc4d3" rx="4" />
    <rect x="40" y="88" width="36" height="16" fill="#fff0a8" rx="4" />
  </g>

  <rect x="242" y="216" width="132" height="14" fill="url(#beam)" rx="7" />

  <text x="34" y="52" fill="#eff7ff" font-family="Segoe UI, sans-serif" font-size="32" font-weight="700">ROBOT CANNON</text>
  <text x="34" y="86" fill="#9dd8ff" font-family="Segoe UI, sans-serif" font-size="26">Milestone 1</text>
</svg>
