<svg xmlns="http://www.w3.org/2000/svg" viewBox="0 0 640 360">
  <defs>
    <linearGradient id="bg" x1="0" y1="0" x2="1" y2="0">
      <stop offset="0" stop-color="#030c24" />
      <stop offset="1" stop-color="#07122e" />
    </linearGradient>
  </defs>
  <rect width="640" height="360" fill="url(#bg)" />
  <rect x="14" y="12" width="612" height="336" rx="12" fill="#081430" stroke="#3d5792" stroke-opacity="0.8" />

  <text x="34" y="42" fill="#f2f6ff" font-family="Segoe UI, Arial" font-size="26" font-weight="700">Tariff Panic</text>

  <rect x="34" y="58" width="76" height="18" rx="6" fill="#0f2f67" />
  <rect x="116" y="58" width="44" height="18" rx="6" fill="#1a4ca9" />

  <rect x="34" y="84" width="572" height="46" rx="8" fill="#121f43" stroke="#405e9e" />
  <text x="42" y="102" fill="#f0f6ff" font-family="Segoe UI, Arial" font-size="12" font-weight="700">No Active Event</text>
  <text x="42" y="118" fill="#b9c9ea" font-family="Segoe UI, Arial" font-size="11">Normal operations in effect</text>

  <rect x="34" y="138" width="572" height="18" rx="6" fill="#101d3f" stroke="#35579f" />

  <rect x="34" y="164" width="92" height="24" rx="8" fill="#141f41" stroke="#395590" />
  <rect x="132" y="164" width="92" height="24" rx="8" fill="#141f41" stroke="#395590" />
  <rect x="230" y="164" width="92" height="24" rx="8" fill="#141f41" stroke="#395590" />
  <rect x="328" y="164" width="92" height="24" rx="8" fill="#141f41" stroke="#395590" />
  <rect x="426" y="164" width="86" height="24" rx="8" fill="#141f41" stroke="#395590" />
  <rect x="518" y="164" width="88" height="24" rx="8" fill="#141f41" stroke="#395590" />

  <rect x="34" y="198" width="178" height="132" rx="8" fill="#121f43" stroke="#2e4c89" />
  <rect x="222" y="198" width="134" height="132" rx="8" fill="#121f43" stroke="#2e4c89" />
  <rect x="366" y="198" width="134" height="132" rx="8" fill="#121f43" stroke="#2e4c89" />
  <rect x="510" y="198" width="96" height="132" rx="8" fill="#121f43" stroke="#2e4c89" />

  <text x="42" y="220" fill="#f2f6ff" font-family="Segoe UI, Arial" font-size="10" font-weight="700">Incoming Queue</text>
  <text x="230" y="220" fill="#f2f6ff" font-family="Segoe UI, Arial" font-size="10" font-weight="700">Domestic</text>
  <text x="374" y="220" fill="#f2f6ff" font-family="Segoe UI, Arial" font-size="10" font-weight="700">Import</text>
  <text x="518" y="220" fill="#f2f6ff" font-family="Segoe UI, Arial" font-size="10" font-weight="700">Hold</text>

  <rect x="42" y="236" width="162" height="42" rx="8" fill="#222f5b" />
  <rect x="48" y="271" width="130" height="5" rx="2" fill="#53e17c" />
  <rect x="178" y="271" width="20" height="5" rx="2" fill="#344b80" />
</svg>
